#!OML:ASF F:\twosubjects\two\Thursday\Session 1\justin.ASF
:FULLY-SPECIFIED
:DEGREES
261
root 8.20913 18.4385 5.51779 -162.405 35.5294 -175.023
lowerback 2.378 -1.9096 -5.81067
upperback 3.75581 -2.51036 2.97388
thorax 2.95712 -1.41904 6.3556
lowerneck -11.9018 -5.69096 -10.1812
upperneck 36.3828 -7.36986 12.0682
head 15.7664 -2.15546 6.04645
rclavicle -4.05521e-014 -1.66979e-014
rhumerus -30.6439 -15.612 -76.9429
rradius 29.2856
rwrist -3.71535
rhand -12.3237 11.628
rfingers 7.12502
rthumb 13.745 -17.898
lclavicle -4.05521e-014 -1.66979e-014
lhumerus -30.1337 5.74726 82.8955
lradius 31.9161
lwrist -5.33943
lhand -1.86195 38.2951
lfingers 7.12502
lthumb 23.8058 66.8402
rfemur -32.9775 -6.53718 26.4519
rtibia 25.0289
rfoot -7.05955 -6.91177
rtoes -1.43182
lfemur -2.84983 9.78435 -20.6954
ltibia 9.89657
lfoot -8.61494 2.09585
ltoes -20.5767
262
root 8.23991 18.4652 5.52766 -161.979 35.0061 -175.157
lowerback 2.09452 -1.23391 -5.13696
upperback 3.77421 -1.58571 2.37287
thorax 2.94427 -0.927409 5.3407
lowerneck -11.9796 -6.46477 -8.70182
upperneck 35.7142 -9.03247 12.3558
head 15.6612 -2.61631 5.5606
rclavicle -1.00187e-013 4.69132e-014
rhumerus -30.9465 -18.585 -77.1214
rradius 29.7287
rwrist -3.52899
rhand -12.2673 11.5275
rfingers 7.12502
rthumb 13.7994 -17.9948
lclavicle -1.00187e-013 4.69132e-014
lhumerus -28.8363 2.92127 82.9199
lradius 31.3595
lwrist -4.80954
lhand -2.50287 38.2716
lfingers 7.12502
lthumb 23.191 66.8954
rfemur -33.3189 -6.63155 26.5971
rtibia 24.7821
rfoot -7.17616 -7.39135
rtoes 0.879099
lfemur -3.90088 9.17033 -20.4792
ltibia 10.6648
lfoot -8.4869 1.99762
ltoes -18.6964
263
root 8.29952 18.4656 5.47805 -162.437 36.2325 -174.955
lowerback 2.13367 -0.899155 -5.43266
upperback 3.93873 -1.13263 2.53954
thorax 3.04787 -0.715341 5.6896
lowerneck -12.1828 -6.48227 -9.23442
upperneck 36.1441 -8.84797 12.2104
head 15.9242 -2.61292 5.66292
rclavicle 9.54166e-014 -2.78299e-015
rhumerus -30.7986 -17.8291 -77.0725
rradius 29.9247
rwrist -3.76284
rhand -12.2199 11.6101
rfingers 7.12502
rthumb 13.845 -17.9091
lclavicle 9.54166e-014 -2.78299e-015
lhumerus -29.1474 3.47596 83.1862
lradius 31.5349
lwrist -4.34664
lhand -2.90714 38.2738
lfingers 7.12502
lthumb 22.8031 66.9459
rfemur -32.4008 -5.89794 26.4952
rtibia 24.7888
rfoot -7.38852 -6.99164
rtoes 3.31545
lfemur -2.98877 9.81943 -20.4646
ltibia 10.864
lfoot -8.59626 2.54885
ltoes -17.6006
264
root 8.33621 18.4574 5.46 -162.623 36.2384 -175.095
lowerback 2.33056 -0.795103 -5.46124
upperback 3.9724 -0.998663 2.63093
thorax 2.9566 -0.646124 5.80609
lowerneck -12.5085 -6.5843 -9.4804
upperneck 36.1246 -8.98107 12.3389
head 16.0445 -2.68377 5.74097
rclavicle -3.16068e-014 -5.56597e-015
rhumerus -30.4453 -17.6965 -77.1145
rradius 30.1293
rwrist -4.19325
rhand -12.298 11.598
rfingers 7.12502
rthumb 13.7698 -17.9263
lclavicle -3.16068e-014 -5.56597e-015
lhumerus -28.8683 3.44057 83.3864
lradius 31.6226
lwrist -4.03472
lhand -2.49098 38.4108
lfingers 7.12502
lthumb 23.2024 67.0332
rfemur -32.24 -5.73205 26.3166
rtibia 24.9287
rfoot -7.47534 -7.08675
rtoes 2.98865
lfemur -2.81525 9.32804 -20.5369
ltibia 10.9394
lfoot -8.06856 3.13575
ltoes -20.4131
265
root 8.37015 18.4451 5.44091 -162.866 36.1621 -175.528
lowerback 2.34316 -0.711155 -5.5103
upperback 4.02545 -0.882657 2.51995
thorax 2.98721 -0.589099 5.71788
lowerneck -12.6146 -6.69819 -9.32741
upperneck 35.7845 -9.22843 12.3668
head 15.9298 -2.77639 5.64759
rclavicle -9.93923e-015 -3.77691e-015
rhumerus -30.0492 -17.929 -77.3578
rradius 30.3624
rwrist -4.43497
rhand -12.5597 11.309
rfingers 7.12502
rthumb 13.5176 -18.2322
lclavicle -9.93923e-015 -3.77691e-015
lhumerus -28.4165 3.13602 83.4285
lradius 31.5188
lwrist -3.8668
lhand -2.20746 38.2379
lfingers 7.12502
lthumb 23.4744 66.8258
rfemur -32.1667 -5.78659 25.9476
rtibia 24.932
rfoot -7.53835 -6.9792
rtoes 0.677836
lfemur -3.16103 9.157 -20.8435
ltibia 11.6355
lfoot -7.78747 3.39872
ltoes -24.5653
266
root 8.40883 18.4524 5.43433 -162.849 35.9785 -175.925
lowerback 1.99714 -1.03619 -5.8896
upperback 3.96092 -1.31144 2.66756
thorax 3.19314 -0.826645 6.08183
lowerneck -12.3717 -6.38379 -9.56083
upperneck 35.4952 -8.67581 12.2242
head 15.6311 -2.61944 5.69445
rclavicle 1.29111e-013 -9.93923e-016
rhumerus -29.4506 -16.8709 -77.839
rradius 30.4603
rwrist -4.56557
rhand -12.7978 11.149
rfingers 7.12502
rthumb 13.2881 -18.4074
lclavicle 1.29111e-013 -9.93923e-016
lhumerus -28.7933 3.98276 83.3306
lradius 31.9872
lwrist -3.82648
lhand -2.19957 37.9249
lfingers 7.12502
lthumb 23.482 66.5118
rfemur -32.3527 -5.42872 25.5529
rtibia 25.0629
rfoot -7.61292 -7.38801
rtoes -0.157133
lfemur -3.65006 9.40567 -21.0224
ltibia 12.0091
lfoot -7.62658 2.79127
ltoes -25.1474
267
root 8.45218 18.4942 5.45062 -162.442 35.5563 -176.13
lowerback 1.45948 -1.30047 -6.14569
upperback 3.9607 -1.64332 2.75216
thorax 3.5605 -1.01833 6.30185
lowerneck -12.5383 -6.13266 -9.42027
upperneck 35.1901 -8.35514 12.1977
head 15.452 -2.48321 5.68122
rclavicle -2.37548e-014 -3.18055e-014
rhumerus -28.6279 -16.0741 -78.5522
rradius 30.5158
rwrist -4.63145
rhand -13.0948 10.9349
rfingers 7.12502
rthumb 13.0018 -18.6399
lclavicle -2.37548e-014 -3.18055e-014
lhumerus -28.8937 4.16653 83.1885
lradius 32.672
lwrist -3.49495
lhand -2.04254 38.2077
lfingers 7.12502
lthumb 23.6326 66.7753
rfemur -32.7827 -4.92436 25.4374
rtibia 25.1159
rfoot -7.71119 -8.11519
rtoes -0.303824
lfemur -4.4503 9.75212 -20.8417
ltibia 12.4117
lfoot -7.63222 1.37411
ltoes -20.6193
268
root 8.48858 18.466 5.38614 -163.081 35.9074 -175.9
lowerback 1.57032 -1.26333 -5.53989
upperback 4.45337 -1.56497 2.64517
thorax 3.97622 -0.971172 5.84392
lowerneck -12.9876 -6.00005 -9.23827
upperneck 35.0767 -8.21217 12.1623
head 15.4659 -2.40504 5.6424
rclavicle 7.93151e-014 -3.47873e-014
rhumerus -27.8957 -15.6014 -79.146
rradius 30.6566
rwrist -4.3458
rhand -13.4875 10.5527
rfingers 7.12502
rthumb 12.6232 -19.0458
lclavicle 7.93151e-014 -3.47873e-014
lhumerus -28.9182 4.17112 83.1306
lradius 33.3168
lwrist -2.88042
lhand -1.59953 38.7552
lfingers 7.12502
lthumb 24.0574 67.2673
rfemur -31.7182 -5.15608 25.5414
rtibia 25.0584
rfoot -8.08202 -7.47402
rtoes -0.94261
lfemur -3.52627 9.44476 -20.6662
ltibia 13.0308
lfoot -7.65074 2.34917
ltoes -22.8101
269
root 8.5184 18.4576 5.32118 -163.644 36.082 -175.903
lowerback 1.81303 -1.25444 -5.06868
upperback 4.65275 -1.54724 2.57602
thorax 4.02504 -0.94302 5.50634
lowerneck -13.0312 -5.92334 -9.0061
upperneck 34.8616 -8.13048 12.009
head 15.332 -2.36898 5.52377
rclavicle -5.66536e-015 2.22639e-014
rhumerus -27.578 -15.5481 -79.408
rradius 30.8724
rwrist -4.09381
rhand -13.5935 10.7451
rfingers 7.12502
rthumb 12.521 -18.8597
lclavicle -5.66536e-015 2.22639e-014
lhumerus -29.0135 3.76589 83.2579
lradius 33.6617
lwrist -2.22881
lhand -1.5416 38.7596
lfingers 7.12502
lthumb 24.113 67.2644
rfemur -30.8968 -5.7785 25.5457
rtibia 25.0225
rfoot -8.55073 -6.70915
rtoes -0.51338
lfemur -3.01382 9.06933 -20.6637
ltibia 13.7582
lfoot -7.61262 2.88941
ltoes -21.9178
270
root 8.55129 18.4658 5.24308 -164.322 36.5011 -175.968
lowerback 1.99992 -1.17907 -4.7385
upperback 4.88305 -1.4344 2.4845
thorax 4.13101 -0.873238 5.22711
lowerneck -13.0235 -5.78302 -8.74559
upperneck 34.7357 -7.95739 11.8822
head 15.2168 -2.28118 5.43742
rclavicle 6.42074e-014 -7.21588e-014
rhumerus -27.3268 -15.0567 -79.7246
rradius 31.2089
rwrist -4.43577
rhand -13.1857 11.0008
rfingers 7.12502
rthumb 12.9142 -18.5796
lclavicle 6.42074e-014 -7.21588e-014
lhumerus -29.0338 3.2461 83.3837
lradius 33.7512
lwrist -1.87441
lhand -2.13677 38.2403
lfingers 7.12502
lthumb 23.5422 66.8195
rfemur -30.0724 -6.11957 25.344
rtibia 25.2471
rfoot -8.96228 -5.96158
rtoes 0.0355463
lfemur -2.03871 8.38825 -20.8245
ltibia 13.7599
lfoot -7.31652 3.56834
ltoes -20.9873
271
root 8.59799 18.4731 5.2707 -163.719 35.962 -176.001
lowerback 1.81122 -1.48697 -5.05993
upperback 4.56246 -1.86701 2.76193
thorax 3.9821 -1.10454 5.69052
lowerneck -13.3043 -5.56628 -8.65025
upperneck 34.9864 -7.58399 11.6821
head 15.3297 -2.12294 5.41432
rclavicle 4.7112e-014 3.37934e-015
rhumerus -26.9781 -13.6392 -80.2224
rradius 31.6492
rwrist -5.16112
rhand -12.8783 10.8813
rfingers 7.12502
rthumb 13.2105 -18.6801
lclavicle 4.7112e-014 3.37934e-015
lhumerus -29.2648 3.19163 83.3985
lradius 34.1084
lwrist -1.6162
lhand -2.79308 38.1163
lfingers 7.12502
lthumb 22.9125 66.775
rfemur -30.6819 -6.05417 25.6466
rtibia 25.2488
rfoot -8.8941 -6.37226
rtoes 0.241134
lfemur -3.34804 8.92574 -20.4246
ltibia 14.6688
lfoot -7.43406 2.34778
ltoes -23.7368
272
root 8.64057 18.4721 5.26076 -163.349 35.7075 -175.756
lowerback 1.67915 -1.37987 -4.60791
upperback 4.49429 -1.72489 2.75018
thorax 3.94559 -1.01504 5.42126
lowerneck -13.5892 -5.71502 -8.24147
upperneck 34.923 -7.93295 11.7165
head 15.4013 -2.20418 5.28897
rclavicle -2.18663e-014 1.45113e-014
rhumerus -26.7141 -13.5386 -80.608
rradius 32.0536
rwrist -5.79183
rhand -12.848 10.9935
rfingers 7.12502
rthumb 13.2397 -18.566
lclavicle -2.18663e-014 1.45113e-014
lhumerus -29.0925 1.87109 83.4832
lradius 34.4101
lwrist -1.21963
lhand -2.77081 38.2427
lfingers 7.12502
lthumb 22.9339 66.8987
rfemur -30.6737 -6.16614 26.0535
rtibia 25.006
rfoot -8.83753 -6.34402
rtoes 0.175535
lfemur -4.41197 9.34148 -19.9789
ltibia 16.301
lfoot -7.98014 1.78728
ltoes -25.2819
273
root 8.68135 18.4879 5.23012 -163.275 35.6326 -175.672
lowerback 1.63299 -1.61162 -4.55
upperback 4.30894 -2.0482 3.07393
thorax 3.83153 -1.17633 5.72209
lowerneck -13.0625 -5.49953 -9.08391
upperneck 34.6322 -7.49239 12.0099
head 15.1268 -2.11768 5.62687
rclavicle 1.48095e-014 -4.62174e-014
rhumerus -26.573 -12.0837 -80.6768
rradius 32.3173
rwrist -6.10296
rhand -12.9113 11.2303
rfingers 7.12502
rthumb 13.1787 -18.3332
lclavicle 1.48095e-014 -4.62174e-014
lhumerus -29.6037 2.26856 83.7514
lradius 34.7622
lwrist -1.36863
lhand -2.18082 38.0001
lfingers 7.12502
lthumb 23.5 66.5847
rfemur -30.4593 -6.05341 26.1422
rtibia 24.922
rfoot -8.90481 -6.52065
rtoes -0.0752388
lfemur -4.96875 9.41581 -19.7303
ltibia 17.7347
lfoot -8.21878 1.32418
ltoes -24.4747
